<svg xmlns="http://www.w3.org/2000/svg" width="218.969" height="47.682" viewBox="0 0 218.969 47.682">
  <g id="Group_2750" data-name="Group 2750" transform="translate(-75 -32)">
    <path id="Path_981" data-name="Path 981" d="M243.427,90.49l1.672-3.756a11.358,11.358,0,0,0,5.943,1.775c2.11,0,2.933-.592,2.933-1.467,0-2.856-10.24-.772-10.24-7.461,0-3.216,2.624-5.84,7.976-5.84a13.486,13.486,0,0,1,6.535,1.57l-1.57,3.782a10.64,10.64,0,0,0-4.991-1.389c-2.135,0-2.907.72-2.907,1.621,0,2.753,10.214.695,10.214,7.332,0,3.139-2.624,5.814-7.976,5.814a14.184,14.184,0,0,1-7.59-1.981" transform="translate(-121.902 -27.647)" fill="#3b3e43"/>
    <path id="Path_982" data-name="Path 982" d="M345.143,89.7v3.936H330.684V75.626h14.124v3.936h-9.082V82.6h8v3.808h-8V89.7Z" transform="translate(-192.482 -29.172)" fill="#3b3e43"/>
    <path id="Path_983" data-name="Path 983" d="M420.936,88.85h-2.779v4.785h-5.094V75.626H421.3c4.914,0,8,2.547,8,6.663a5.976,5.976,0,0,1-3.525,5.686l3.885,5.66H424.2Zm.051-9.21h-2.83v5.274h2.83c2.11,0,3.164-.978,3.164-2.624,0-1.672-1.055-2.65-3.164-2.65" transform="translate(-259.116 -29.172)" fill="#3b3e43"/>
    <path id="Path_984" data-name="Path 984" d="M1128.409,75.626v.341h.507V77.32h.384V75.967h.507v-.341Zm2.9,0-.445.715-.447-.715h-.406v1.695h.362V76.177l.468.742h.034l.467-.742V77.32h.364V75.626Z" transform="translate(-837.742 -29.172)" fill="#60c830"/>
    <path id="Path_985" data-name="Path 985" d="M502.441,83.107c0-5.48,4.194-9.365,9.905-9.365a9.526,9.526,0,0,1,7.744,3.4l-3.242,2.933a5.324,5.324,0,0,0-4.245-2.11,5.147,5.147,0,0,0,0,10.291,5.323,5.323,0,0,0,4.245-2.11l3.242,2.933a9.526,9.526,0,0,1-7.744,3.4c-5.712,0-9.905-3.885-9.905-9.365" transform="translate(-331.412 -27.648)" fill="#60c830"/>
    <path id="Path_986" data-name="Path 986" d="M592.186,83.107c0-5.4,4.245-9.365,10.008-9.365S612.2,77.7,612.2,83.107s-4.245,9.365-10.008,9.365-10.008-3.962-10.008-9.365m14.871,0a4.87,4.87,0,1,0-4.863,5.146,4.823,4.823,0,0,0,4.863-5.146" transform="translate(-404.004 -27.648)" fill="#60c830"/>
    <path id="Path_987" data-name="Path 987" d="M727.76,75.626v9.6l-7.95-9.6h-4.187v9.6l-7.95-9.6h-4.194V93.635h4.991v-9.6l7.95,9.6h4.193l-.006-9.6,7.95,9.6h4.194V75.626Z" transform="translate(-494.027 -29.172)" fill="#60c830"/>
    <path id="Path_988" data-name="Path 988" d="M880.036,89.7v3.936H865.578V75.626H879.7v3.936H870.62V82.6h8v3.808h-8V89.7Z" transform="translate(-625.144 -29.172)" fill="#60c830"/>
    <path id="Path_989" data-name="Path 989" d="M942.622,83.107c0-5.48,4.193-9.365,9.9-9.365a9.526,9.526,0,0,1,7.744,3.4l-3.241,2.933a5.324,5.324,0,0,0-4.245-2.11,5.147,5.147,0,0,0,0,10.291,5.324,5.324,0,0,0,4.245-2.11l3.241,2.933a9.525,9.525,0,0,1-7.744,3.4c-5.712,0-9.9-3.885-9.9-9.365" transform="translate(-687.463 -27.648)" fill="#60c830"/>
    <path id="Path_990" data-name="Path 990" d="M1045.339,79.665h-5.531V75.626h16.131v4.039h-5.506v13.97h-5.094Z" transform="translate(-766.074 -29.172)" fill="#60c830"/>
    <path id="Path_991" data-name="Path 991" d="M76.206,11a.5.5,0,0,0,.437.267h4.332v7.475a.489.489,0,0,0,.887.284L89.213,8.735a.486.486,0,0,0,.032-.505.5.5,0,0,0-.437-.267H84.476V.488A.489.489,0,0,0,83.59.2L76.239,10.5A.486.486,0,0,0,76.206,11Z" transform="translate(13.404 32)" fill="#60c830"/>
    <path id="Path_992" data-name="Path 992" d="M134.42,63.308a.5.5,0,0,0,.037.51l2.525,3.52L130.911,71.7a.489.489,0,0,0,.286.885l12.646-.027a.486.486,0,0,0,.429-.268.5.5,0,0,0-.037-.511l-2.525-3.52,6.073-4.358a.489.489,0,0,0-.286-.886l-12.646.028A.485.485,0,0,0,134.42,63.308Z" transform="translate(-30.726 -18.969)" fill="#60c830"/>
    <path id="Path_993" data-name="Path 993" d="M145.672,128.71a.5.5,0,0,0-.454.236l-2.234,3.712-6.4-3.854a.489.489,0,0,0-.7.613l5.027,11.6a.486.486,0,0,0,.416.289.5.5,0,0,0,.454-.237l2.234-3.712,6.4,3.854a.489.489,0,0,0,.7-.614L146.088,129A.486.486,0,0,0,145.672,128.71Z" transform="translate(-34.877 -72.109)" fill="#60c830"/>
    <path id="Path_994" data-name="Path 994" d="M89.245,157.09a.5.5,0,0,0-.437-.267H84.476v-7.475a.489.489,0,0,0-.887-.284l-7.351,10.291a.486.486,0,0,0-.033.505.5.5,0,0,0,.437.267h4.332V167.6a.489.489,0,0,0,.887.284L89.213,157.6A.486.486,0,0,0,89.245,157.09Z" transform="translate(13.404 -88.409)" fill="#60c830"/>
    <path id="Path_995" data-name="Path 995" d="M13.565,145.671a.5.5,0,0,0-.037-.511L11,141.641l6.073-4.358a.489.489,0,0,0-.286-.886l-12.646.027a.486.486,0,0,0-.43.268.5.5,0,0,0,.037.511l2.525,3.52L.2,145.081a.489.489,0,0,0,.286.886l12.646-.027A.486.486,0,0,0,13.565,145.671Z" transform="translate(75 -78.328)" fill="#60c830"/>
    <path id="Path_996" data-name="Path 996" d="M10.616,67.432a.5.5,0,0,0,.454-.236L13.3,63.483l6.4,3.854a.489.489,0,0,0,.7-.614l-5.027-11.6a.486.486,0,0,0-.416-.289.5.5,0,0,0-.454.237l-2.234,3.712-6.4-3.854a.489.489,0,0,0-.7.614l5.027,11.6A.486.486,0,0,0,10.616,67.432Z" transform="translate(70.848 -12.351)" fill="#60c830"/>
  </g>
</svg>